<svg width="720" height="980" viewBox="0 0 720 980" fill="none" xmlns="http://www.w3.org/2000/svg">
  <ellipse cx="360" cy="922" rx="250" ry="46" fill="#000000" fill-opacity="0.38"/>
  <path d="M214 906C230 730 240 588 252 486C270 330 450 330 468 486C480 588 490 730 506 906H214Z" fill="#111827"/>
  <path d="M266 520C302 548 418 548 454 520C442 694 430 804 430 906H290C290 804 278 694 266 520Z" fill="#1E293B"/>
  <circle cx="360" cy="250" r="118" fill="#CBD5E1"/>
  <path d="M246 242C262 130 322 82 390 94C464 106 508 166 494 264C452 226 336 214 246 242Z" fill="#0F172A"/>
  <path d="M268 304C298 374 418 374 452 304C426 420 294 420 268 304Z" fill="#94A3B8" opacity="0.8"/>
  <path d="M174 906C188 718 196 584 220 470C234 404 282 360 360 360C438 360 486 404 500 470C524 584 532 718 546 906H174Z" stroke="#22D3EE" stroke-width="18" stroke-linejoin="round" opacity="0.55"/>
  <path d="M214 906C230 730 240 588 252 486C270 330 450 330 468 486C480 588 490 730 506 906H214Z" stroke="#60A5FA" stroke-width="8" opacity="0.4"/>
</svg>
